# xmcd
#
# Track frame offsets:
#	150
#	16354
#	31034
#	46604
#	61666
#	77180
#	89829
#	100488
#	111618
#	125768
#	139680
#	151395
#
# Disc length: 2206 seconds
#
# Revision: 4294836231
# Processed by: cddbd v1.5.2PL0 Copyright (c) Steve Scherf et al.
# Submitted via: EZCDAudioConverter 8.1.0.1
#
DISCID=9d089c0c
DTITLE=Dawn Landes - Meet Me At The River
DYEAR=2018
DGENRE=Country
TTITLE0=Meet Me At The River
TTITLE1=Traveling
TTITLE2=Why They Name Whiskey After Men
TTITLE3=Old Memories
TTITLE4=Wind And Rain
TTITLE5=What Will I Do
TTITLE6=Southern Girl
TTITLE7=How To Say “I Love You”
TTITLE8=Keep On Moving
TTITLE9=My Church
TTITLE10=What Is The Color Of The Soul Of Man
TTITLE11=I Don't Dance
EXTD=
EXTT0=
EXTT1=
EXTT2=
EXTT3=
EXTT4=
EXTT5=
EXTT6=
EXTT7=
EXTT8=
EXTT9=
EXTT10=
EXTT11=
PLAYORDER=
